<svg xmlns="http://www.w3.org/2000/svg" width="16" height="16" viewBox="0 0 16 16">
    <g fill="#AD77B3" fill-rule="evenodd">
        <path d="M3.81 2.651V.732C3.81.328 4.165 0 4.57 0c.407 0 .762.328.762.732v1.92a.762.762 0 0 1-1.523 0M10.667 2.651V.732c0-.404.33-.732.762-.732.38 0 .761.328.761.732v1.92c0 .429-.38.757-.761.757a.746.746 0 0 1-.762-.758"/>
        <path d="M14.29 1.984h-1.686v.683c0 .683-.579 1.215-1.208 1.215-.679 0-1.207-.532-1.207-1.215v-.683H5.736v.683c0 .683-.554 1.215-1.208 1.215a1.211 1.211 0 0 1-1.207-1.215v-.683H1.71C.755 1.984 0 2.743 0 3.704v10.477c0 .936.755 1.771 1.71 1.771h12.58c.955 0 1.71-.835 1.71-1.771V3.704c0-.961-.755-1.72-1.71-1.72zM4.05 14.18H1.585v-2.303H4.05v2.303zm0-3.189H1.585V8.69H4.05v2.302zm0-3.213H1.585V5.476H4.05v2.303zm.982 4.099h2.49v2.303h-2.49v-2.303zm0-3.188h2.49v2.302h-2.49V8.69zm0-3.214h2.49v2.303h-2.49V5.476zm5.937 8.705H8.478v-2.303h2.49v2.303zm0-3.189H8.478V8.69h2.49v2.302zm0-3.213H8.478V5.476h2.49v2.303zm.98 4.099h2.466v2.303H11.95v-2.303zm0-3.188h2.466v2.302H11.95V8.69zm0-3.214h2.466v2.303H11.95V5.476z"/>
    </g>
</svg>
